# xmcd
#
# Track frame offsets: 
#        150
#        14959
#        29471
#        40065
#        50757
#        59880
#        70385
#        78770
#        94942
#        105101
#
# Disc length: 1582 seconds
#
# Revision: 0
# Processed by: cddbd v1.5.2PL0 Copyright (c) Steve Scherf et al.
# Submitted via: ExactAudioCopy v0.95b3
#
DISCID=88062c0a
DTITLE=George Jones and Mel Street - George Jones and Mel Street
DYEAR=2006
DGENRE=Country
TTITLE0=George Jones - He Stopped Loving Her Today
TTITLE1=Mel Street - Borrowed Angel
TTITLE2=George Jones - Nothing Ever Hurt Me Half As Bad As Losing You
TTITLE3=Mel Street - Now She's Anybody's Song
TTITLE4=Mel Street - Body Man
TTITLE5=George Jones - Her Name Is...
TTITLE6=Mel Street - Let's Put Out The Fire
TTITLE7=George Jones and Merle Haggard - C.C. Waterback
TTITLE8=Mel Street - Muddy Mississippi
TTITLE9=Mel Street - Your Love Will Be Enough
EXTD=
EXTT0=
EXTT1=
EXTT2=
EXTT3=
EXTT4=
EXTT5=
EXTT6=
EXTT7=
EXTT8=
EXTT9=
PLAYORDER=
